<svg xmlns="http://www.w3.org/2000/svg" width="256" height="256"><path fill-opacity=".016" d="M0 128.004v128.004l128.25-.254 128.25-.254.254-127.75L257.008 0H0v128.004m.485.496c0 70.4.119 99.053.265 63.672.146-35.38.146-92.98 0-128C.604 29.153.485 58.1.485 128.5" fill="#1976D2" fill-rule="evenodd"/><path fill-opacity=".283" d="M115.327 2.205c-2.531 2.758-5.847 9.393-10.308 20.625l-3.308 8.329-6.631-6.579c-11.098-11.013-12.901-9.726-17.095 12.209C74.544 54.788 74.481 57.5 77.5 57.5c2.706 0 5.812-6.512 8.788-18.422l2.353-9.421 5.322 6.421c6.073 7.328 6.753 7.886 9.632 7.907 3.126.023 4.85-2.582 7.93-11.985 1.531-4.675 3.644-10.519 4.695-12.986l1.911-4.486 2.809 6.986c1.545 3.842 4.187 10.024 5.872 13.736 2.767 6.099 3.345 6.75 5.99 6.75 3.645 0 7.664-3.089 11.13-8.554l2.661-4.195 1.665 9.758c2.729 15.997 5.562 20.763 10.704 18.011 1.121-.6 2.038-1.89 2.038-2.867 0-4.555-5.983-37.427-7.045-38.707-3.247-3.913-9.848.128-15.044 9.209l-3.175 5.551-4.641-11.372c-2.552-6.254-5.552-12.938-6.667-14.853-2.528-4.344-6.104-5.042-9.101-1.776M153 64.276c-12.211 4.178-21.599 11.563-28.899 22.734l-3.601 5.51-2.23-4.51c-8.602-17.4-25.011-27.062-40.967-24.122C50.421 68.842 33.114 97.576 39.893 126c2.122 8.899 8.457 20.889 15.849 30l6.896 8.5 7.785.294 7.785.294-6.624-6.689c-11.626-11.741-18.766-24.562-20.501-36.815-2.507-17.706 5.289-33.745 19.584-40.289 4.696-2.15 6.541-2.444 13.148-2.093 14.002.744 24.256 8.453 32.367 24.334 2.375 4.65 4.572 8.457 4.883 8.459.31.003 1.363-1.683 2.34-3.745 6.627-14.001 20.394-29.363 31.129-34.735 5.478-2.741 6.826-2.986 16.466-3 5.775-.008 12.062.21 13.97.485 2.659.383 3.547.122 3.798-1.117.22-1.088-1.149-2.312-4.179-3.736-10.032-4.716-21.322-5.384-31.589-1.871m51.514 29.709c-1.261 1.393-2.076 4.744-2.737 11.25-1.338 13.171-3.476 22.769-6.365 28.567-3.326 6.674-10.709 14.012-18.017 17.907-5.772 3.076-23.249 8.771-24.151 7.869-.245-.246 2.412-1.873 5.905-3.616 3.493-1.743 7.814-4.561 9.601-6.262 2.763-2.629 3.25-3.793 3.25-7.774 0-6.558-1.585-7.566-7.111-4.525-2.414 1.329-7.089 3.163-10.389 4.075-8.706 2.406-16.193 7.82-21.25 15.365-2.338 3.487-4.25 6.75-4.25 7.25 0 .524 12.121.909 28.649.909h28.649l7.71-7.825c13.324-13.523 18.613-27.459 17.705-46.656-.791-16.706-2.822-21.371-7.199-16.534m-11.045 4.049c-1.625 1.796-1.852 4.017-1.945 19-.058 9.331.181 16.966.531 16.966 1.208 0 5.008-14.532 6.145-23.501 1.65-13.008-.09-17.593-4.731-12.465m-10.48 12.216c-2.204 3.615-2.375 6.748-.968 17.75 1.284 10.043 1.969 13 3.011 13 1.82 0 2.957-7.962 2.962-20.75.005-11.171-.232-13.25-1.509-13.25-.833 0-2.406 1.463-3.496 3.25M58.381 172.91c-1.716 1.046-3.628 3.361-4.25 5.145-1.39 3.987-1.553 45.706-.192 49.284 2.301 6.053 10.26 9.071 17.563 6.66 5.307-1.751 7.49-5.902 7.494-14.249L79 213h-9l-.015 4.75c-.019 5.831-.999 7.526-4.098 7.087L63.5 224.5l-.27-21.428c-.267-21.128-.029-22.989 2.949-23.057 2.112-.047 3.821 3.555 3.821 8.056V193h9v-6.435c0-3.539-.439-7.589-.975-8.999-2.277-5.991-13.208-8.581-19.644-4.656m32.382-.345C85.45 175.448 85 177.788 85 202.549c0 24.741.573 27.814 5.697 30.556 1.433.767 4.72 1.395 7.303 1.395s5.87-.628 7.303-1.395c5.124-2.742 5.697-5.815 5.697-30.556 0-24.937-.445-27.176-5.967-30.032-3.7-1.913-10.699-1.89-14.27.048m-65.2 10.185c-1.439 9.168-5.26 34.905-7.053 47.5l-.534 3.75h4.881c4.864 0 4.884-.014 5.501-3.75.341-2.062.625-4.988.631-6.5.01-2.583.279-2.75 4.424-2.75h4.412l.838 6.25.837 6.25 4.873.31 4.872.31-.679-5.81c-.806-6.893-7.394-50.82-8.108-54.06-.451-2.045-1.074-2.25-6.852-2.25h-6.355l-1.688 10.75M118 203v31h23v-10h-14v-52h-9v31m28 0v31.11l4.75-.305 4.75-.305v-25.502l3.22.001 3.22.001.28 12.75.28 12.75 4.75.305 4.75.305V172h-10v26l-3.25.001-3.25.001V172.5l-4.75-.305-4.75-.305V203m33.236-.25.264 30.75 11.75.282 11.75.281V224h-14v-15.9l5.75-.3 5.75-.3.305-4.75.305-4.75H189v-17h14v-9h-24.029l.265 30.75m29.764.153V234h9v-13.667c0-7.516.224-13.442.499-13.168.274.275 2.206 6.312 4.292 13.417l3.794 12.918 5.292.305c6.154.355 6.192 2.302-.315-16.147l-4.178-11.842 3.399-3.399 3.4-3.4-.342-10.488c-.322-9.913-.493-10.64-3.112-13.259-2.573-2.572-3.45-2.795-12.25-3.117l-9.479-.346v31.096M96.23 180.837c-.977.62-1.208 5.759-1 22.235l.27 21.428h5l.27-21.428c.263-20.838-.002-23.041-2.77-23.041-.275 0-1.072.362-1.77.806M218 189.566v8.567l2.75-.317c2.693-.309 2.756-.47 3.047-7.728.307-7.664-.307-9.04-4.047-9.073-1.532-.013-1.75 1.054-1.75 8.551M32.609 197c-.394 3.575-.974 8.188-1.29 10.25-.555 3.62-.471 3.75 2.391 3.75h2.966l-1.354-9.25c-1.783-12.177-1.878-12.343-2.713-4.75m114.641 44.496c-.728.827-1.25 4.152-1.25 7.962 0 6.269.102 6.542 2.441 6.542 2.908 0 4.339-1.763 2.122-2.614-1.873-.719-2.06-2.987-.313-3.803 1-.466 1-.7 0-1.166-1.819-.849-1.53-3.095.5-3.881 1.659-.644 1.66-.745.016-1.956-.954-.703-1.442-1.571-1.084-1.929.358-.358.239-.634-.265-.613-.505.021-1.479.677-2.167 1.458M51 248.441c0 6.357 1.359 9.181 3.096 6.437.633-.998.878-1.033.889-.128.023 1.883 1.803 1.501 2.326-.5.435-1.667.463-1.667.573 0 .064.963.566 1.75 1.116 1.75.573 0 1-3.028 1-7.083 0-7.735-1.639-9.135-3.333-2.849-.946 3.509-1.048 3.445-2.099-1.318-.333-1.512-1.273-2.75-2.087-2.75-1.155 0-1.481 1.419-1.481 6.441M71 249c0 4 .429 7 1 7s1-3 1-7-.429-7-1-7-1 3-1 7m13-.167v6.834h6v-6.834c0-6.353-1.256-9.117-2.311-5.083-.435 1.667-.463 1.667-.573 0-.064-.963-.791-1.75-1.616-1.75-1.187 0-1.5 1.426-1.5 6.833m17 .167c0 4 .429 7 1 7s1-3 1-7-.429-7-1-7-1 3-1 7m13.709-6.376c-1.241 1.241-.763 5.086.791 6.376.825.685 1.464 1.977 1.421 2.872-.05 1.037-.262 1.174-.583.378-.86-2.131-2.495-1.374-2.158 1 .493 3.471 5.215 3.157 5.624-.374.169-1.452-.422-3.351-1.321-4.25-1.501-1.501-1.5-1.626.015-1.626 2.478 0 1.518-4.426-1.039-4.792-1.123-.161-2.36.027-2.75.416M130 243.5c0 .825.45 1.5 1 1.5s1 2.475 1 5.5.45 5.5 1 5.5 1-2.448 1-5.441.45-5.719 1-6.059c1.971-1.218.946-2.5-2-2.5-2 0-3 .5-3 1.5m32 5.5c0 4 .429 7 1 7 .55 0 1.029-1.012 1.063-2.25l.064-2.25.904 2.25c1.605 3.994 2.558 2.404 2.397-4-.206-8.156-.052-7.75-2.928-7.75-2.429 0-2.5.2-2.5 7m16.204-.33c.188 4.223.755 6.822 1.546 7.084.921.304 1.25-1.45 1.25-6.671 0-5.722-.297-7.083-1.546-7.083-1.269 0-1.493 1.193-1.25 6.67m13.403-5.088c-1.22 3.178-.626 10.157.977 11.488 3.567 2.96 6.702-3.81 4.967-10.725-.691-2.751-4.97-3.301-5.944-.763m2.679 4.918c.008 2.75.202 3.756.432 2.236.229-1.52.223-3.77-.014-5-.237-1.23-.425.014-.418 2.764" fill="#1976D2" fill-rule="evenodd"/><path fill-opacity=".628" d="M117.326 1.244c-2.508 1.147-6.792 8.801-11.321 20.226-1.738 4.384-3.388 8.34-3.667 8.792-.279.451-3.628-2.123-7.441-5.721C91.083 20.944 87.346 18 86.592 18c-3.821 0-5.384 3.429-7.995 17.536C75.404 52.792 75.263 57 77.877 57c2.306 0 4.947-5.912 8.153-18.25 1.25-4.812 2.542-8.728 2.871-8.701.33.026 2.624 2.55 5.099 5.608 5.925 7.32 8.377 8.948 11.403 7.569 1.823-.831 3.231-3.727 6.555-13.488 4.347-12.764 5.855-15.996 6.642-14.238.246.55 2.799 6.357 5.674 12.904 2.874 6.547 6.018 12.397 6.987 13 2.871 1.787 8.698-2.027 12.293-8.045l3.07-5.142 2.079 11.277c2.647 14.36 3.862 17.006 7.81 17.006 2.678 0 3.021-.359 3.316-3.466.182-1.906-.917-11.067-2.44-20.358-2.486-15.16-3.001-16.998-5.014-17.915-3.663-1.669-8.275 1.798-12.791 9.613l-3.915 6.777-4.168-10.326c-7.529-18.65-9.689-21.633-14.175-19.581m40.73 61.788c-7.016 1.468-18.08 7.235-23.805 12.408-2.887 2.609-7.14 7.621-9.453 11.137l-4.203 6.395-3.026-5.736c-1.664-3.155-5.96-8.702-9.547-12.327C99.297 66.091 93.104 63.639 81 64.208c-7.51.353-9.346.846-15.764 4.227-12.011 6.329-21.295 18.017-24.703 31.1-5.193 19.936 2.22 42.837 19.815 61.215 3.959 4.135 4.242 4.25 10.481 4.25h6.413l-6.491-6.881c-10.913-11.568-16.645-21.295-19.366-32.86-4.293-18.25 3.392-36.6 18.407-43.945 4.712-2.306 6.994-2.784 13.202-2.768 6.601.017 8.266.428 13.809 3.404 8.068 4.333 15.037 11.98 20.055 22.007l3.955 7.901 4.47-7.679c15.824-27.183 32.891-37.86 54.65-34.19 11.477 1.935 11.95-1.205.741-4.926-7.446-2.473-16.583-3.293-22.618-2.031m47.016 30.896c-1.06 1.06-2.166 3.873-2.456 6.25-.291 2.377-1.017 8.549-1.614 13.716-2.142 18.532-7.953 28.543-21.498 37.037-4.864 3.05-21.781 9.101-25.266 9.037-1.543-.028-1.513-.206.262-1.581 1.1-.852 4.475-2.813 7.5-4.359 3.025-1.545 6.307-3.703 7.293-4.795 2.31-2.558 3.16-7.974 1.806-11.502l-1.064-2.768-5.267 2.898c-2.898 1.593-7.518 3.435-10.268 4.094-5.721 1.368-10.523 4.008-15.38 8.452-3.745 3.427-9.12 11.259-9.12 13.289 0 1.041 5.568 1.304 27.56 1.304h27.559l4.488-3.75c14.69-12.274 23.313-32.123 22.047-50.75-.648-9.529-2.46-18.5-3.737-18.5-.504 0-1.785.868-2.845 1.928m-11.763 4.322c-.97 1.498-2.088 34.754-1.169 34.752 1.486-.004 5.178-17.205 5.635-26.252.473-9.359.409-9.75-1.582-9.75-1.141 0-2.439.563-2.884 1.25m-9.922 11.968c-1.382 2.672-1.555 5.002-1.023 13.75.7 11.5 1.448 16.032 2.646 16.032 1.64 0 2.241-4 2.743-18.25.461-13.108.339-14.75-1.091-14.75-.886 0-2.359 1.448-3.275 3.218M60.325 172.405c-6.216 2.81-6.788 4.893-7.158 26.048-.423 24.239.138 29.006 3.849 32.717 2.462 2.462 3.591 2.83 8.685 2.83C75.189 234 79 229.568 79 218.532V213h-9v5.465c0 4.379-.384 5.67-1.934 6.5-2.502 1.339-2.635 1.323-4.495-.536C62.25 223.107 62 219.752 62 203.363 62 183.44 62.565 180 65.835 180c2.925 0 4.165 2.144 4.165 7.2v4.8h9v-5.599c0-6.19-1.928-11.25-5.022-13.182-3.213-2.007-10.105-2.418-13.653-.814m32.175-.002c-6.783 2.994-6.966 3.653-7.327 26.446-.393 24.859.042 28.519 3.836 32.314C91.511 233.664 92.574 234 98 234s6.489-.336 8.991-2.837c3.794-3.795 4.229-7.455 3.836-32.314-.301-18.97-.489-20.825-2.327-22.884-4.064-4.554-10.505-5.988-16-3.562m-64.975.847c-.791 2.396-8.475 54.352-8.504 57.5-.019 1.99.479 2.25 4.303 2.25h4.325l.925-6.25.926-6.25 4.12-.301c4.446-.325 5.335.829 5.366 6.969.025 4.894.92 5.832 5.558 5.832 4.311 0 4.328-.014 3.879-3.25-.249-1.787-2.245-15.162-4.437-29.721-2.193-14.56-3.986-26.822-3.986-27.25 0-1.36-12.021-.906-12.475.471M118 202.5V233h23v-8h-14v-53h-9v30.5m28 0V233h9v-26h8v26h9.029l-.264-30.25-.265-30.25-4.25-.307-4.25-.308V198h-8v-26h-9v30.5m34-.033V233h23v-8h-14v-18h12.115l-.308-4.25-.307-4.25-5.75-.3-5.75-.3V181h14.115l-.308-4.25-.307-4.25-11.25-.283-11.25-.283v30.533m29 .033V233h9v-13.167c0-7.241.328-12.839.728-12.438.4.4 2.362 6.213 4.36 12.916l3.632 12.189 4.64.305c2.552.167 4.64-.116 4.64-.63 0-.515-2.043-6.695-4.541-13.735l-4.54-12.8 2.509-2.07c3.428-2.829 4.582-6.504 4.516-14.385-.117-13.758-3.542-17.181-17.194-17.183L209 172v30.5M95.2 181.2c-.856.856-1.2 7.148-1.2 21.965 0 19.506.117 20.827 1.934 21.8 2.502 1.339 2.635 1.323 4.495-.536 1.325-1.325 1.571-4.744 1.571-21.8 0-20.724-.337-22.629-4-22.629-.88 0-2.14.54-2.8 1.2m122.8 8.3v8.5h2.893c3.497 0 4.107-1.319 4.107-8.882 0-6.188-1.117-8.118-4.7-8.118-2.22 0-2.3.297-2.3 8.5M31.931 199.689A2359.193 2359.193 0 0 1 30.575 211c-.041.275 1.387.641 3.175.813 1.788.173 3.242-.052 3.232-.5-.05-2.221-3.032-21.696-3.375-22.039-.217-.217-.971 4.47-1.676 10.415m115.31 42.297c-.683 1.093-1.241 4.468-1.241 7.5 0 5.356.079 5.513 2.75 5.484 2.351-.026 2.496-.179 1-1.05-2.141-1.247-2.311-3.92-.25-3.92.825 0 1.5-.45 1.5-1s-.675-1-1.5-1c-.833 0-1.5-.889-1.5-2s.667-2 1.5-2c.825 0 1.5-.45 1.5-1s-.477-1-1.059-1-.781-.45-.441-1 .25-1-.2-1c-.451 0-1.377.894-2.059 1.986M52 248.3c0 3.685.408 6.7.906 6.7.499 0 .653-.97.343-2.156-.387-1.478-.2-1.932.593-1.441.637.393 1.158 1.363 1.158 2.156 0 2.304 1.818 1.663 2.294-.809l.434-2.25.136 2.25c.075 1.238.586 2.25 1.136 2.25.564 0 1-2.833 1-6.5 0-7.45-1.38-8.449-3.108-2.25l-1.184 4.25-.933-3.5c-1.668-6.264-2.775-5.746-2.775 1.3m19 .2c0 3.667.436 6.5 1 6.5.564 0 1-2.833 1-6.5s-.436-6.5-1-6.5c-.564 0-1 2.833-1 6.5m13.683-5.85C83.6 243.733 83.889 255 85 255c.55 0 1.03-1.012 1.068-2.25l.067-2.25 1.085 2.25c1.829 3.792 2.78 2.53 2.78-3.691 0-5.897-1.892-9.802-2.116-4.368-.086 2.082-.24 2.292-.597.809-.606-2.52-1.717-3.736-2.604-2.85M101 248.5c0 3.667.436 6.5 1 6.5.564 0 1-2.833 1-6.5s-.436-6.5-1-6.5c-.564 0-1 2.833-1 6.5m13.667-5.833c-1.347 1.347-.608 4.767 1.52 7.032 1.687 1.796 1.915 2.599 1 3.514-.916.916-1.187.799-1.187-.513 0-.935-.45-1.7-1-1.7-1.519 0-1.195 2.594.5 4 1.197.993 1.803.993 3 0 2.014-1.671 1.889-3.236-.5-6.273-2.17-2.758-2.586-4.727-1-4.727.55 0 1 .765 1 1.7 0 1.288.281 1.419 1.158.542.876-.876.847-1.531-.123-2.7-1.344-1.62-3.243-2-4.368-.875M130 243c0 .55.45 1 1 1s1 2.475 1 5.5.45 5.5 1 5.5 1-2.475 1-5.5c0-3.204.442-5.5 1.059-5.5.582 0 .781-.45.441-1s-1.716-1-3.059-1c-1.343 0-2.441.45-2.441 1m32 5.43c0 3.713.435 6.57 1 6.57.55 0 1.029-1.012 1.063-2.25l.064-2.25.904 2.25c.498 1.238 1.396 2.25 1.996 2.25.6 0 .766-.527.368-1.17-.398-.644-.762-3.456-.809-6.25-.076-4.476-.354-5.118-2.336-5.4-2.137-.303-2.25.01-2.25 6.25m17 .011c0 3.706.435 6.559 1 6.559.554 0 1-2.647 1-5.941 0-3.268-.45-6.219-1-6.559-.628-.388-1 1.823-1 5.941m13.701-5.809c-1.034 1.035-.853 12.156.209 12.812.5.309 1.645.28 2.544-.065 2.288-.878 1.835-12.709-.503-13.154-.852-.162-1.864.021-2.25.407M164 246c0 1.867.267 2.133 1.2 1.2.933-.933.933-1.467 0-2.4-.933-.933-1.2-.667-1.2 1.2m30.3 3c0 3.025.187 4.262.416 2.75.229-1.512.229-3.988 0-5.5s-.416-.275-.416 2.75" fill="#1976D2" fill-rule="evenodd"/><path fill-opacity=".656" d="M115.812 2.703c-2.13 2.417-6.118 10.49-9.873 19.988-1.699 4.295-3.41 8.142-3.803 8.548-.393.407-3.609-2.18-7.147-5.75C90.214 20.671 87.858 19 85.838 19c-1.496 0-3.001.455-3.345 1.012C81.578 21.492 76 50.834 76 54.165c0 3.501 2.333 3.783 4.459.538.828-1.263 2.842-7.392 4.475-13.619 1.634-6.227 3.183-11.534 3.441-11.792.259-.259 3.076 2.72 6.262 6.619 4.638 5.677 6.341 7.089 8.554 7.089 3.045 0 5.22-2.56 6.374-7.5 1.096-4.692 7.625-21.5 8.351-21.5.359 0 3.181 5.962 6.271 13.25 5.438 12.827 5.72 13.26 8.843 13.573 3.891.389 8.754-3.8 11.514-9.92.973-2.158 1.924-3.768 2.114-3.578.19.19 1.259 5.418 2.375 11.618C151.664 53.554 153.086 57 156.48 57c1.448 0 2.853-.705 3.198-1.604.7-1.823-4.466-35.968-5.846-38.646-.541-1.049-2.049-1.75-3.764-1.75-3.358 0-8.007 4.762-11.334 11.611-1.173 2.414-2.443 4.389-2.823 4.389-.38 0-2.563-4.612-4.851-10.25-6.742-16.614-8.217-19.21-11.112-19.547-1.507-.176-3.201.438-4.136 1.5m38.635 61.644c-12.247 4.006-24.781 13.959-30.63 24.323l-3.114 5.518-3.582-6.785C107.11 68.438 89.832 60.266 71.922 66.025c-16.953 5.451-29.146 20.378-32.084 39.276-2.65 17.049 3.404 34.683 17.917 52.19l5.255 6.339 6.497.335c3.574.184 6.496.171 6.495-.03-.001-.201-3.512-4.073-7.802-8.605-13.231-13.978-18.741-27.119-17.997-42.924.514-10.94 3.498-18.149 10.344-24.995 6.935-6.935 12.321-9.115 22.453-9.089 6.971.018 9.31.447 13 2.385 8.797 4.618 16.866 13.53 21.995 24.292l2.717 5.699 5.894-9.66c7.873-12.904 18.601-23.811 27.87-28.334 6.446-3.145 7.699-3.404 16.5-3.404 5.238 0 11.212.358 13.274.795 6.183 1.312 4.782-1.752-2-4.375-7.101-2.745-21.694-3.571-27.803-1.573m51.178 29.515c-1.669 1.844-2.2 4.497-4.681 23.38-2.625 19.977-14.269 33.33-34.944 40.074-14.662 4.782-18.771 4.121-8.043-1.294 3.276-1.654 7.551-4.407 9.5-6.118 3.14-2.758 3.543-3.661 3.543-7.949 0-2.66-.458-5.12-1.018-5.466-.56-.346-2.488.279-4.284 1.389-1.796 1.11-6.855 3.152-11.24 4.537-8.545 2.7-14.717 6.607-18.69 11.833-2.145 2.822-5.768 9.073-5.768 9.952 0 .165 12.487.255 27.75.2l27.75-.1 7.541-7.4C205.634 144.543 211 131.677 211 113.839c0-9.319-1.409-19.471-2.93-21.113-.395-.425-1.495.086-2.445 1.136m-12.068 5.361c-1.259 1.796-1.538 5.198-1.458 17.75.096 15.101.139 15.404 1.569 11.027 3.928-12.02 5.696-31 2.889-31-.794 0-2.144 1-3 2.223m-8.925 9.629c-2.548 2.818-3.055 8.886-1.684 20.158 1.901 15.645 3.312 13.76 4.497-6.01.28-4.675.182-10.236-.218-12.357-.725-3.848-.732-3.852-2.595-1.791m-125.33 64.16C54.588 174.911 54 178.184 54 202.549c0 18.576.284 23.248 1.581 25.98 2.369 4.992 9.228 6.828 16.3 4.363C76.106 231.419 78 227.444 78 220.05V214h-7.895l-.303 5.147c-.341 5.818-2.454 8.192-5.552 6.24-1.555-.98-1.782-3.325-2.033-20.995-.343-24.036-.245-24.62 4.067-24.203 3.172.307 3.22.39 3.516 6.061l.3 5.75H78v-7.077c0-6.488-.243-7.32-2.923-10-2.523-2.523-3.652-2.914-8.25-2.86-2.93.035-6.316.462-7.525.949m30.126 1.295-2.928 2.517-.302 24.256c-.217 17.464.041 25.084.923 27.211 3.1 7.486 18.658 7.486 21.758 0 .881-2.126 1.14-9.723.923-27.097-.293-23.437-.367-24.207-2.531-26.369-1.713-1.712-3.696-2.321-8.572-2.631-5.65-.36-6.663-.129-9.271 2.113m-61.839 1.443C26.484 181.079 19 230.573 19 232.548c0 .249 1.748.452 3.883.452 4.204 0 5.058-1.251 5.119-7.5.045-4.684 1.173-5.667 6.097-5.315l4.401.315.89 6.25.889 6.25h8l-.608-5.25c-.335-2.887-2.298-16.387-4.362-30L39.555 173h-5.698c-5.411 0-5.727.138-6.268 2.75M118.5 203v30H141v-8h-14v-52h-8.5v30m28.5 0v30h8v-26h8v26h8v-60h-8v26h-8v-26h-8v30m33 0v30h22v-8h-14v-18h12v-8h-12v-18h14v-8h-22v30m29 0v30h9v-13.7c0-7.896.371-13.298.876-12.75.482.522 2.574 6.688 4.649 13.7l3.773 12.75h4.434c2.439 0 4.285-.371 4.101-.824-.183-.454-2.32-6.645-4.749-13.758l-4.415-12.933 3.165-3.165c3.139-3.139 3.166-3.253 3.166-13.32 0-9.889-.076-10.23-2.923-13.077-2.801-2.801-3.301-2.923-12-2.923H209v30M94.472 181.212c-.283.737-.392 10.729-.243 22.206.242 18.607.46 20.985 2.021 21.969 1.276.804 2.224.804 3.5-.001 1.58-.997 1.75-3.234 1.75-22.995V180.5l-3.257-.314c-2.041-.197-3.449.187-3.771 1.026M218 189.937c0 8.876.049 9.063 2.378 9.063 3.82 0 4.741-2.118 4.418-10.158l-.296-7.342-3.25-.313-3.25-.314v9.064m-185.032-1.854c-.017.78-.678 6.142-1.468 11.917-.79 5.775-1.451 10.838-1.468 11.25-.018.412 1.543.75 3.468.75 2.974 0 3.495-.338 3.464-2.25-.07-4.379-2.614-21.733-3.284-22.403-.374-.374-.694-.043-.712.736m19.164 61.167c.112 5.313.239 5.726.853 2.75l.722-3.5.788 3.331c.556 2.35 1.035 2.939 1.631 2 1.162-1.833 1.09-4.083-.107-3.343-.547.339-1.266-1.181-1.627-3.441-.991-6.194-2.408-4.812-2.26 2.203m5.579-4.254c-.704 2.694.336 10.004 1.424 10.004.479 0 .757-2.696.618-5.992-.256-6.051-1.083-7.677-2.042-4.012m14.081 2.754c.489 7.599.967 8.255 1.092 1.5.064-3.437-.225-6.25-.641-6.25-.417 0-.62 2.137-.451 4.75m13.35 1.25.082 6.5.917-4.786c.59-3.077.561-5.399-.081-6.5-.734-1.26-.978.01-.918 4.786m2.568-1.875c-.304 2.269-.167 5.081.305 6.25.619 1.533.876.384.922-4.125.073-7.202-.429-8.071-1.227-2.125M101 249c0 3.333.444 6 1 6s1-2.667 1-6-.444-6-1-6-1 2.667-1 6m14-3.622c0 1.307.675 2.937 1.5 3.622 1.682 1.396 2.043 5 .5 5-.55 0-1-.45-1-1s-.436-1-.969-1c-.532 0-.709.675-.393 1.5.317.825 1.428 1.5 2.469 1.5 1.441 0 1.893-.724 1.893-3.031 0-1.772-.623-3.271-1.5-3.607-.825-.317-1.5-1.428-1.5-2.469 0-2.128 1.565-2.558 2.338-.643.301.747.536.545.583-.5.05-1.11-.653-1.75-1.921-1.75-1.439 0-2 .667-2 2.378m16.986 3.87.486 6.252.324-5.478c.178-3.013.86-5.819 1.514-6.235.767-.488.48-.762-.81-.774-1.84-.015-1.961.484-1.514 6.235M147 249c0 5.59.154 5.992 2.25 5.884 1.693-.087 1.817-.229.5-.573-2.025-.53-2.41-4.878-.5-5.649 1-.403 1-.52 0-.583-1.913-.121-1.486-3.871.5-4.39 1.317-.344 1.193-.486-.5-.573-2.096-.108-2.25.294-2.25 5.884m15.491.002c-.008 5.826 1.427 8.759 1.59 3.248l.081-2.75 1.187 2.671c1.092 2.459 1.197 2.202 1.323-3.25.125-5.438-.04-5.921-2.018-5.919-1.965.002-2.155.529-2.163 6M179.32 249c0 3.575.182 5.037.403 3.25.222-1.787.222-4.713 0-6.5-.221-1.787-.403-.325-.403 3.25m12.878-.326c.262 5.059.565 5.826 2.302 5.826 1.758 0 2-.667 2-5.5 0-4.979-.218-5.531-2.302-5.826-2.205-.313-2.29-.081-2 5.5M164 246c0 1.1.45 2 1 2s1-.9 1-2-.45-2-1-2-1 .9-1 2m29 3.083c0 6.608 2.37 6.261 2.805-.411.241-3.69-.022-4.672-1.25-4.672-1.203 0-1.555 1.152-1.555 5.083" fill="#1976D2" fill-rule="evenodd"/></svg>